#!OML:ASF H:\Dans Jumps\Project 1\Capture day 1\Session 1\subject.ASF
:FULLY-SPECIFIED
:DEGREES
141
root 0.673642 17.4662 -14.0095 4.18431 -0.827584 -1.49993
lowerback -2.32684 -0.691434 -0.191845
upperback 2.15561 -0.9797 1.96822
thorax 3.56068 -0.520263 2.08201
lowerneck -13.7722 0.675928 -1.65889
upperneck 28.874 1.48132 -0.251335
head 11.6969 0.448687 0.398445
rclavicle 8.79622e-015 -2.42517e-014
rhumerus -23.0484 -18.5695 -79.9009
rradius 23.5117
rwrist 34.064
rhand -18.769 -26.8415
rfingers 7.12502
rthumb 7.52816 -56.6875
lclavicle 8.79622e-015 -2.42517e-014
lhumerus -21.2195 1.75181 87.1964
lradius 19.0792
lwrist 0.154577
lhand -24.3487 -2.32276
lfingers 7.12502
lthumb 2.14054 27.6463
rfemur -11.264 -2.39434 19.6518
rtibia 23.5531
rfoot -14.9892 -4.05864
rtoes 9.55415
lfemur -11.0168 8.64831 -19.0737
ltibia 21.4461
lfoot -12.9795 4.10292
ltoes -1.52078
142
root 0.672188 17.466 -14.0109 4.18226 -0.822193 -1.49936
lowerback -2.32061 -0.689481 -0.185851
upperback 2.15705 -0.977315 1.96899
thorax 3.55846 -0.51893 2.07963
lowerneck -13.7776 0.671685 -1.66847
upperneck 28.8858 1.47511 -0.241328
head 11.7025 0.445989 0.403032
rclavicle -9.79014e-015 -2.54444e-014
rhumerus -22.9969 -18.5327 -79.9128
rradius 23.5311
rwrist 34.0709
rhand -18.8258 -26.7517
rfingers 7.12502
rthumb 7.47329 -56.5997
lclavicle -9.79014e-015 -2.54444e-014
lhumerus -21.1927 1.7382 87.188
lradius 19.1072
lwrist 0.198123
lhand -24.3338 -2.28033
lfingers 7.12502
lthumb 2.155 27.6885
rfemur -11.2627 -2.40353 19.6543
rtibia 23.5461
rfoot -14.9869 -4.04879
rtoes 9.55248
lfemur -11.0228 8.62881 -19.0713
ltibia 21.4503
lfoot -12.9728 4.12184
ltoes -1.53277
143
root 0.670653 17.4659 -14.0125 4.18155 -0.819399 -1.49609
lowerback -2.3132 -0.686404 -0.183854
upperback 2.15706 -0.973211 1.96893
thorax 3.55408 -0.516812 2.07874
lowerneck -13.7799 0.666579 -1.68241
upperneck 28.8978 1.46709 -0.22583
head 11.7074 0.44271 0.410136
rclavicle 6.60959e-015 -2.3059e-014
rhumerus -22.9449 -18.4772 -79.9324
rradius 23.5629
rwrist 34.0315
rhand -18.8634 -26.7014
rfingers 7.12502
rthumb 7.43704 -56.5507
lclavicle 6.60959e-015 -2.3059e-014
lhumerus -21.1672 1.71606 87.1827
lradius 19.1392
lwrist 0.254971
lhand -24.311 -2.22157
lfingers 7.12502
lthumb 2.17696 27.7471
rfemur -11.2644 -2.40823 19.6539
rtibia 23.541
rfoot -14.9874 -4.03805
rtoes 9.56334
lfemur -11.0301 8.60945 -19.0718
ltibia 21.4535
lfoot -12.9661 4.14144
ltoes -1.53076
144
root 0.669044 17.4657 -14.0141 4.18136 -0.820512 -1.49362
lowerback -2.30543 -0.681288 -0.181374
upperback 2.15788 -0.96638 1.96791
thorax 3.55022 -0.513317 2.07675
lowerneck -13.7856 0.659713 -1.69962
upperneck 28.9099 1.45619 -0.205944
head 11.7131 0.43832 0.419054
rclavicle -1.43622e-014 2.78299e-014
rhumerus -22.8909 -18.3952 -79.9644
rradius 23.6155
rwrist 33.9281
rhand -18.8572 -26.7193
rfingers 7.12502
rthumb 7.44302 -56.5684
lclavicle -1.43622e-014 2.78299e-014
lhumerus -21.1394 1.68465 87.1792
lradius 19.1736
lwrist 0.322336
lhand -24.2826 -2.15561
lfingers 7.12502
lthumb 2.20443 27.8127
rfemur -11.2676 -2.40809 19.6549
rtibia 23.5368
rfoot -14.9891 -4.02914
rtoes 9.57529
lfemur -11.0384 8.59114 -19.0713
ltibia 21.4572
lfoot -12.9595 4.16362
ltoes -1.53047
145
root 0.667373 17.4657 -14.0158 4.18227 -0.824852 -1.49167
lowerback -2.29911 -0.674526 -0.178778
upperback 2.15955 -0.95737 1.96645
thorax 3.54794 -0.508738 2.07433
lowerneck -13.7908 0.651007 -1.72039
upperneck 28.9196 1.44285 -0.183731
head 11.7176 0.432773 0.429095
rclavicle 2.98177e-015 7.95139e-015
rhumerus -22.8333 -18.2948 -80.0058
rradius 23.6829
rwrist 33.7773
rhand -18.8133 -26.7976
rfingers 7.12502
rthumb 7.48532 -56.6451
lclavicle 2.98177e-015 7.95139e-015
lhumerus -21.1085 1.64803 87.1768
lradius 19.2077
lwrist 0.389914
lhand -24.2609 -2.10101
lfingers 7.12502
lthumb 2.2254 27.8671
rfemur -11.2732 -2.40476 19.6568
rtibia 23.5334
rfoot -14.9905 -4.02017
rtoes 9.59096
lfemur -11.0479 8.57478 -19.0698
ltibia 21.4619
lfoot -12.9528 4.18525
ltoes -1.52646
146
root 0.665608 17.4656 -14.0175 4.18466 -0.832566 -1.49268
lowerback -2.29392 -0.666299 -0.173929
upperback 2.16216 -0.946526 1.96527
thorax 3.54718 -0.503205 2.07102
lowerneck -13.7988 0.640793 -1.74286
upperneck 28.927 1.42752 -0.160467
head 11.7219 0.426297 0.439552
rclavicle 1.27222e-014 -5.56597e-015
rhumerus -22.7744 -18.1918 -80.0495
rradius 23.7546
rwrist 33.626
rhand -18.7544 -26.8915
rfingers 7.12502
rthumb 7.54218 -56.7371
lclavicle 1.27222e-014 -5.56597e-015
lhumerus -21.0727 1.60589 87.1753
lradius 19.2407
lwrist 0.457296
lhand -24.2428 -2.06768
lfingers 7.12502
lthumb 2.24288 27.9003
rfemur -11.2814 -2.39854 19.6628
rtibia 23.5306
rfoot -14.9906 -4.01207
rtoes 9.60439
lfemur -11.0601 8.56336 -19.0647
ltibia 21.4683
lfoot -12.9474 4.2053
ltoes -1.53705
